<svg width="21" height="21" viewBox="0 0 21 21" fill="none" xmlns="http://www.w3.org/2000/svg">
<path d="M6.29953 4.53059C6.38576 4.44526 6.45337 4.34299 6.4981 4.23023C6.54284 4.11747 6.56373 3.99667 6.55945 3.87544C6.55517 3.7542 6.52582 3.63517 6.47325 3.52585C6.42068 3.41652 6.34603 3.31927 6.254 3.24023C5.79089 2.845 5.20253 2.62698 4.59369 2.625L4.45957 2.62869H4.43988C3.0515 2.71318 1.96869 3.91904 1.97156 5.37305C1.97156 6.15234 2.29969 6.56496 2.55891 6.89514C2.63163 6.98746 2.72281 7.0636 2.82663 7.11869C2.93045 7.17378 3.04461 7.2066 3.16184 7.21506C3.1725 7.21506 3.19055 7.21711 3.24387 7.21711C3.3493 7.21695 3.45362 7.19547 3.55054 7.15396C3.64746 7.11244 3.73498 7.05175 3.80783 6.97553L6.29953 4.53059ZM16.5616 2.62951L16.4275 2.62541H16.4062C15.7968 2.627 15.2078 2.84504 14.7442 3.24064C14.6523 3.31968 14.5778 3.41688 14.5253 3.52613C14.4728 3.63538 14.4435 3.75431 14.4392 3.87545C14.435 3.99658 14.4558 4.11728 14.5005 4.22996C14.5451 4.34264 14.6126 4.44486 14.6987 4.53018L17.1912 6.97676C17.2642 7.05325 17.352 7.11413 17.4492 7.15573C17.5464 7.19732 17.6511 7.21876 17.7568 7.21875C17.8093 7.21875 17.8274 7.21875 17.8389 7.2167C17.956 7.20818 18.0701 7.17533 18.1738 7.12025C18.2776 7.06517 18.3687 6.98905 18.4414 6.89678C18.7022 6.5666 19.0271 6.15521 19.0287 5.37469C19.0312 3.91904 17.9484 2.71318 16.5616 2.62951Z" fill="black"/>
<path d="M10.5029 3.9375C6.5244 3.9375 3.28416 7.17568 3.28416 11.1562C3.28275 12.844 3.87531 14.4783 4.95801 15.773L3.47653 17.2549C3.41414 17.3155 3.36442 17.3879 3.33027 17.4679C3.29612 17.5479 3.27822 17.6339 3.2776 17.7209C3.27699 17.8079 3.29367 17.8941 3.32668 17.9746C3.3597 18.0551 3.40838 18.1282 3.4699 18.1897C3.53142 18.2512 3.60456 18.2998 3.68505 18.3328C3.76555 18.3658 3.85179 18.3824 3.93878 18.3818C4.02576 18.3811 4.11175 18.3632 4.19174 18.329C4.27173 18.2948 4.34412 18.2451 4.40471 18.1826L5.88619 16.7012C7.18154 17.7826 8.81545 18.375 10.5029 18.375C12.1904 18.375 13.8243 17.7826 15.1196 16.7012L16.6015 18.1826C16.6621 18.2451 16.7345 18.2948 16.8145 18.329C16.8945 18.3632 16.9805 18.3811 17.0675 18.3818C17.1544 18.3824 17.2407 18.3658 17.3212 18.3328C17.4017 18.2998 17.4748 18.2512 17.5363 18.1897C17.5979 18.1282 17.6465 18.0551 17.6796 17.9746C17.7126 17.8941 17.7292 17.8079 17.7286 17.7209C17.728 17.6339 17.7101 17.5479 17.676 17.4679C17.6418 17.3879 17.5921 17.3155 17.5297 17.2549L16.0478 15.773C17.1307 14.4784 17.7233 12.844 17.7217 11.1562C17.7217 7.17773 14.4835 3.9375 10.5029 3.9375ZM11.1592 11.1562C11.1592 11.3303 11.09 11.4972 10.967 11.6203C10.8439 11.7434 10.677 11.8125 10.5029 11.8125H7.22166C7.04762 11.8125 6.88069 11.7434 6.75762 11.6203C6.63455 11.4972 6.56541 11.3303 6.56541 11.1562C6.56541 10.9822 6.63455 10.8153 6.75762 10.6922C6.88069 10.5691 7.04762 10.5 7.22166 10.5H9.84666V6.5625C9.84666 6.38845 9.9158 6.22153 10.0389 6.09846C10.1619 5.97539 10.3289 5.90625 10.5029 5.90625C10.677 5.90625 10.8439 5.97539 10.967 6.09846C11.09 6.22153 11.1592 6.38845 11.1592 6.5625V11.1562Z" fill="black"/>
</svg>
