<svg width="37" height="37" viewBox="0 0 37 37" fill="none" xmlns="http://www.w3.org/2000/svg">
<path d="M18.5 3.071C15.7091 3.07151 12.9708 3.82961 10.577 5.26443C8.18318 6.69924 6.22377 8.75695 4.90776 11.2181C3.59175 13.6792 2.9685 16.4514 3.1045 19.2389C3.2405 22.0265 4.13064 24.7248 5.67997 27.0461C7.22931 29.3675 9.37971 31.2247 11.9018 32.4196C14.4239 33.6146 17.2231 34.1026 20.0007 33.8314C22.7784 33.5602 25.4304 32.5401 27.6737 30.8799C29.9171 29.2197 31.6677 26.9817 32.7389 24.4046C33.2646 23.1404 32.005 21.8701 30.7378 22.385C28.5658 23.2648 26.1542 23.3556 23.9223 22.6416C21.6904 21.9276 19.7792 20.4539 18.5212 18.4769C17.2632 16.4999 16.7378 14.1444 17.0364 11.8202C17.3351 9.49594 18.4388 7.34984 20.1558 5.75504L20.2745 5.63171C21.1239 4.66046 20.4487 3.08333 19.1059 3.08333H18.6958L18.591 3.07408L18.5 3.071Z" fill="#7C9AF2"/>
</svg>
